<?xml version="1.0" encoding="UTF-8"?>
<!DOCTYPE svg PUBLIC "-//W3C//DTD SVG 1.1//EN" "http://www.w3.org/Graphics/SVG/1.1/DTD/svg11.dtd">
<!-- Creator: CorelDRAW X7 -->
<svg xmlns="http://www.w3.org/2000/svg" xml:space="preserve" width="54.934mm" height="59.073mm" version="1.1" style="shape-rendering:geometricPrecision; text-rendering:geometricPrecision; image-rendering:optimizeQuality; fill-rule:evenodd; clip-rule:evenodd"
viewBox="0 0 5493 5907"
 xmlns:xlink="http://www.w3.org/1999/xlink">
 <defs>
  <style type="text/css">
   <![CDATA[
    .str1 {stroke:#727271;stroke-width:100}
    .str0 {stroke:#727271;stroke-width:75}
    .fil3 {fill:none;fill-rule:nonzero}
    .fil1 {fill:#2B2A29}
    .fil0 {fill:white}
    .fil4 {fill:#FEFEFE;fill-rule:nonzero}
    .fil2 {fill:#2B2A29;fill-rule:nonzero}
    .fil5 {fill:#E31E24;fill-rule:nonzero}
   ]]>
  </style>
 </defs>
 <g id="Слой_x0020_1">
  <metadata id="CorelCorpID_0Corel-Layer"/>
  <g id="_2675742472192">
   <polygon class="fil0" points="2853,260 5459,4773 247,4773 "/>
   <path class="fil1" d="M2853 260l2606 4513 -5212 0 2606 -4513zm1960 4139l-1959 -3394 -1960 3394 3919 0z"/>
  </g>
  <path class="fil2" d="M2707 1690c36,-40 86,-68 140,-73 52,-3 102,20 140,54 18,17 36,34 45,57 14,37 10,77 10,115 1,7 -3,17 5,22 10,1 19,-1 29,2 14,15 16,36 15,56 1,25 -12,49 -31,66 -10,11 -25,20 -27,36 -10,45 31,51 53,79 9,12 14,27 24,39 8,7 19,9 29,11 57,13 110,38 160,65 22,12 44,23 64,38 31,23 66,42 94,70 18,18 38,33 57,50 67,64 174,245 215,328 32,64 55,134 53,205 2,45 -10,89 -15,133 -11,70 -24,140 -44,209 -15,50 -36,100 -68,142 -19,27 -63,-16 -110,-2 -31,8 -55,39 -56,71 6,12 19,18 29,26 34,22 66,48 102,67 16,8 29,21 40,34 27,33 65,57 89,92 24,34 43,71 60,109 22,50 29,107 22,162 -1,9 -9,16 -18,16 -177,1 -355,1 -532,0 -13,0 -29,1 -39,-10 -6,-20 4,-41 4,-61 -2,-10 -8,-20 -18,-22 -12,-1 -24,3 -35,4 -39,2 -77,-1 -115,-6 -6,-1 -16,-2 -13,-10 43,-14 87,-25 132,-30 25,-3 49,4 74,2 22,-9 26,-37 29,-58 4,-75 2,-150 3,-225 -1,-47 1,-95 -4,-141 -15,-22 -32,-44 -42,-70 -5,-9 -7,-22 -16,-28 -60,-6 -121,-9 -181,-1 -35,3 -70,-7 -100,-24 -43,-22 -93,-17 -138,-5 -15,7 -33,19 -34,38 13,4 24,11 37,14 0,3 -1,9 -1,12 -23,1 -47,-2 -67,13 -21,15 -36,38 -44,63 12,4 24,8 37,11 78,20 150,61 230,78 32,7 65,6 98,6 59,0 119,0 179,1 16,4 11,30 -4,29 -57,4 -113,7 -170,10 -11,2 -26,0 -32,12 -5,16 33,66 -7,131 -13,22 -33,39 -53,56 -35,30 -34,31 -75,28 2,15 7,29 6,45 -23,8 -39,-18 -61,-18 -39,-5 -72,21 -102,41 -23,17 -53,30 -67,58 -7,12 -3,28 -7,42 -5,10 -18,8 -28,9 -155,-3 -310,0 -465,-2 -42,-2 -83,0 -125,-1 -8,-1 -20,-4 -20,-14 4,-43 12,-88 38,-124 25,-38 49,-76 81,-109 4,-5 10,-8 16,-11 18,30 -46,71 -60,148 -4,21 0,43 10,62 2,-12 3,-32 20,-32 29,0 57,2 86,-4 -9,-11 -25,-15 -35,-25 -5,-5 -3,-12 -1,-18 12,-13 32,-15 48,-22 22,-10 45,-24 57,-46 8,-15 2,-32 0,-47 17,-10 35,-18 50,-31 18,-15 34,-35 47,-55 5,-6 5,-14 6,-22 -8,-7 -17,-13 -23,-22 26,-28 61,-46 88,-72 10,-13 -11,-30 2,-41 24,-25 53,-43 78,-68 14,-13 -5,-37 -22,-29 -68,16 -122,63 -170,111 -11,11 -19,25 -33,33 1,-19 15,-40 2,-57 -14,-13 -33,-21 -50,-30 -18,-9 -35,-21 -55,-25 -32,-10 -64,20 -94,2 -71,-46 -117,-117 -168,-182 -55,-73 -101,-162 -91,-256 2,0 7,0 10,0 7,34 22,66 35,98 17,36 33,72 53,106 17,29 35,59 48,91 23,60 43,63 88,101 12,11 28,16 44,17 12,-1 20,-11 28,-20 29,-36 57,-74 79,-115 12,-20 -6,-46 -27,-49 -20,-1 -29,24 -49,21 -20,-3 -37,-13 -54,-22 3,-24 31,-34 36,-58 1,-10 -7,-18 -12,-27 -25,-35 -33,-78 -45,-119 -3,-12 -8,-27 -23,-29 -34,1 -59,29 -93,35 3,-10 5,-21 11,-30 9,-13 24,-21 32,-34 -28,-3 -63,6 -83,-20 22,-7 46,-9 65,-23 -4,-3 -6,-8 -7,-13 -37,1 -80,3 -109,-25 -7,-11 8,-13 15,-15 46,-8 96,-4 138,-27 22,-14 23,-43 23,-66 3,-54 10,-107 23,-159 4,-21 11,-41 15,-62 4,1 7,1 11,0 5,38 3,76 3,115 0,13 3,28 14,37 2,-1 5,-2 7,-3 11,-22 10,-44 22,-41 9,29 -1,61 11,90 4,10 13,16 22,20 9,-8 13,-20 13,-32 1,-29 1,-57 -2,-85 -8,-82 7,-167 45,-240 3,-9 9,-16 14,-23 10,12 1,26 -3,38 -23,61 -31,126 -28,190 2,32 0,64 1,97 1,16 29,16 30,-1 2,-10 -2,-27 13,-31 2,13 -3,29 8,39 18,17 35,36 50,55 17,24 43,41 50,70 3,15 14,32 3,45 -7,12 -20,21 -19,36 3,36 1,74 12,109 5,19 27,18 43,17 17,0 38,-5 53,8 6,20 -20,33 -14,53 38,10 76,-41 169,-25 31,5 64,4 90,-14 23,-17 41,-40 54,-65 -32,14 -63,28 -95,40 -19,10 -34,-16 -53,-9 -23,7 -46,30 -71,19 0,-9 1,-17 -2,-25 -8,-13 -28,-14 -33,-29 -1,-12 13,-13 22,-13 36,0 72,-13 100,-35 -51,2 -103,14 -154,5 -7,-2 -3,-12 2,-12 13,-7 27,-10 41,-12 58,-9 116,-25 168,-54 31,-18 62,-41 75,-76 4,-11 7,-28 -8,-31 -23,-3 -49,-3 -69,-18 5,-11 21,-9 31,-13 29,-6 54,-28 60,-56 8,-38 3,-78 -7,-115 -7,-28 -21,-54 -32,-81 -4,-6 -3,-14 -2,-20 23,17 62,83 81,108 21,29 35,63 52,94 9,18 13,41 31,52 -17,-50 -31,-101 -52,-150 -66,-140 -162,-264 -229,-404 -4,-11 -12,-25 -2,-35 14,-16 38,-25 46,-46 4,-19 1,-44 -19,-51 -26,-10 -37,-38 -44,-62 -5,-19 -9,-39 0,-57 6,-13 24,-10 32,-21 8,-14 4,-29 4,-44 -1,-52 12,-108 47,-148zm451 512c-63,68 -114,146 -160,225 -9,16 -20,31 -25,49 -3,14 11,28 24,25 11,-2 16,-13 22,-22 46,-85 92,-171 138,-256 4,-9 7,-18 10,-27 -2,1 -7,5 -9,6zm219 83c2,26 5,52 10,77 18,75 26,152 34,229 4,31 1,62 2,92 3,1 10,2 13,2 31,-93 44,-191 47,-288 -1,-9 -1,-18 -3,-26 -4,-13 -16,-20 -25,-29 -24,-21 -48,-44 -78,-57zm-145 61c-19,63 -40,126 -78,180 -29,40 -23,91 -20,137 28,10 27,-34 49,-36 15,39 -8,78 -9,117 13,1 16,-12 23,-20 18,-26 35,-53 45,-83 9,-26 11,-54 10,-80 -3,-45 0,-90 -4,-134 -2,-26 -2,-52 -4,-79 -3,0 -9,-1 -12,-2zm37 365c-25,22 -28,59 -21,89 17,79 24,160 12,240 -8,45 -1,91 -11,136 -10,53 29,109 81,119 15,3 21,-15 27,-26 13,-26 39,-51 70,-46 14,1 34,9 39,-9 27,-63 45,-130 54,-198 2,-24 7,-49 4,-74 -5,-19 -25,-25 -39,-36 -68,-49 -123,-114 -179,-176 -10,-9 -21,-22 -37,-19zm-972 158c-40,24 -83,43 -125,66 -26,14 -28,27 -17,56 24,55 53,108 84,159 22,35 56,61 74,99 5,8 8,19 17,24 28,15 61,17 91,13 7,-1 14,-5 14,-13 2,-34 2,-71 -16,-103 -26,-46 -50,-94 -60,-147 -8,-40 -5,-81 -6,-122 0,-21 3,-42 -1,-62 -23,-1 -37,20 -55,30zm381 638l-1 5c9,17 34,19 43,36 -1,13 -13,26 -6,39 8,11 21,21 35,19 9,-2 16,-9 24,-13 12,-3 25,2 36,7 43,19 89,31 136,28 14,0 31,-1 39,-15 1,-14 5,-31 -5,-44 -10,-2 -19,7 -29,10 -28,15 -60,9 -88,-1 -54,-20 -106,-42 -158,-65 -8,-4 -17,-6 -26,-6zm857 78c-15,6 -33,4 -49,7 -5,6 -9,17 0,22 10,11 31,21 25,39 -12,13 -31,12 -47,16 -10,3 -15,15 -14,25 0,24 1,47 1,71 0,20 -3,40 3,59 9,-2 19,-4 27,-8 56,-28 120,-35 181,-33 0,3 0,9 0,12 -30,4 -59,10 -87,20 -30,10 -62,20 -85,44 -12,13 -26,28 -23,47 8,22 31,29 50,36 61,24 130,20 190,-4 29,-13 59,-28 79,-54 3,-53 1,-109 -22,-158 -12,-28 -37,-48 -56,-72 -13,-15 -28,-29 -43,-43 -19,-15 -34,-37 -56,-46 -26,-2 -50,13 -74,20z"/>
  <g>
   <path class="fil3 str0" d="M4489 5501l-63 23 1 332c36,0 73,0 109,0l1 -356 -48 1zm-755 0c-2,0 -4,0 -5,1 -5,34 7,57 18,87l124 2c0,18 2,15 -11,24 -139,94 -131,44 -130,199 0,37 -2,42 6,42 82,1 163,0 245,0 0,-29 0,-58 0,-88l-139 0c1,-16 -6,-16 8,-24 23,-14 103,-55 117,-70 20,-21 15,-92 14,-125 -1,-50 -34,-48 -65,-49 -61,1 -122,0 -182,1zm-197 266l0 89 101 0c0,-30 0,-59 0,-89 -34,0 -67,0 -101,0zm646 -173c0,-6 14,-3 29,-3 0,59 1,118 0,178 -9,0 -19,-1 -28,-1l-1 -174zm510 -93l-63 183 0 105 157 0 1 67 109 0 0 -221c-36,0 -73,0 -109,0 0,22 0,44 -1,66l-44 -1c-3,-27 37,-113 48,-152l0 -47 -98 0zm-1448 0l0 90c21,0 42,0 64,0l0 265c37,0 74,0 112,0l0 -265c56,0 51,8 63,-28 3,-8 7,-16 6,-25l0 -37 -245 0zm-636 0l-1 355c79,0 158,0 237,0 0,-29 0,-59 0,-89 -42,0 -85,0 -128,0l0 -48c36,0 75,0 110,0l0 -87c-36,0 -72,0 -110,0l0 -42c37,1 73,0 110,1l18 -52c0,-13 1,-26 0,-38 -79,-1 -158,-1 -236,0zm343 3c-36,19 -24,65 -25,119 -1,58 60,72 119,116 8,6 9,5 7,27l-126 1c0,29 0,58 0,86 -1,4 4,3 6,3 63,0 127,0 190,0 27,0 43,-24 42,-48 -3,-134 24,-102 -121,-199 -2,-1 -3,-2 -5,-4 1,-4 0,-8 -1,-13l109 -1 18 -48c0,-15 0,-29 0,-43 -23,1 -198,-3 -213,4zm1162 -3c-41,7 -41,30 -41,65l0 249c3,28 20,42 47,41l175 0c38,-12 30,-65 30,-101 0,-37 4,-204 -5,-228 -11,-31 -45,-26 -71,-27l-135 1z"/>
   <path id="1" class="fil4" d="M4489 5501l-63 23 1 332c36,0 73,0 109,0l1 -356 -48 1zm-755 0c-2,0 -4,0 -5,1 -5,34 7,57 18,87l124 2c0,18 2,15 -11,24 -139,94 -131,44 -130,199 0,37 -2,42 6,42 82,1 163,0 245,0 0,-29 0,-58 0,-88l-139 0c1,-16 -6,-16 8,-24 23,-14 103,-55 117,-70 20,-21 15,-92 14,-125 -1,-50 -34,-48 -65,-49 -61,1 -122,0 -182,1zm-197 266l0 89 101 0c0,-30 0,-59 0,-89 -34,0 -67,0 -101,0zm646 -173c0,-6 14,-3 29,-3 0,59 1,118 0,178 -9,0 -19,-1 -28,-1l-1 -174zm510 -93l-63 183 0 105 157 0 1 67 109 0 0 -221c-36,0 -73,0 -109,0 0,22 0,44 -1,66l-44 -1c-3,-27 37,-113 48,-152l0 -47 -98 0zm-1448 0l0 90c21,0 42,0 64,0l0 265c37,0 74,0 112,0l0 -265c56,0 51,8 63,-28 3,-8 7,-16 6,-25l0 -37 -245 0zm-636 0l-1 355c79,0 158,0 237,0 0,-29 0,-59 0,-89 -42,0 -85,0 -128,0l0 -48c36,0 75,0 110,0l0 -87c-36,0 -72,0 -110,0l0 -42c37,1 73,0 110,1l18 -52c0,-13 1,-26 0,-38 -79,-1 -158,-1 -236,0zm343 3c-36,19 -24,65 -25,119 -1,58 60,72 119,116 8,6 9,5 7,27l-126 1c0,29 0,58 0,86 -1,4 4,3 6,3 63,0 127,0 190,0 27,0 43,-24 42,-48 -3,-134 24,-102 -121,-199 -2,-1 -3,-2 -5,-4 1,-4 0,-8 -1,-13l109 -1 18 -48c0,-15 0,-29 0,-43 -23,1 -198,-3 -213,4zm1162 -3c-41,7 -41,30 -41,65l0 249c3,28 20,42 47,41l175 0c38,-12 30,-65 30,-101 0,-37 4,-204 -5,-228 -11,-31 -45,-26 -71,-27l-135 1z"/>
  </g>
  <g>
   <g>
    <polygon class="fil3 str1" points="2943,4609 3288,4609 3288,4741 3201,4741 3201,5152 3288,5152 3288,5284 2943,5284 2943,5152 3030,5152 3030,4741 2943,4741 "/>
    <polygon id="1" class="fil4" points="2943,4609 3288,4609 3288,4741 3201,4741 3201,5152 3288,5152 3288,5284 2943,5284 2943,5152 3030,5152 3030,4741 2943,4741 "/>
   </g>
   <g>
    <path class="fil3 str1" d="M4085 4612c108,-15 275,-3 388,-2l0 138 -225 -6c-32,2 -64,-3 -95,4 -18,4 -29,23 -30,41 -2,23 -4,50 9,71 11,18 34,21 53,22 67,1 134,0 201,2 38,1 77,13 105,40 27,25 39,62 43,98 6,56 7,112 -6,167 -11,42 -43,79 -85,94 -27,11 -56,8 -84,7 -41,-1 -356,-6 -405,-9l4 -132c21,1 295,12 325,14 22,0 46,1 65,-12 15,-12 17,-33 17,-51 0,-20 1,-41 -1,-62 -1,-13 -17,-15 -27,-15 -68,0 -137,0 -205,1 -37,1 -74,-9 -108,-25 -25,-12 -47,-32 -57,-59 -20,-57 -25,-119 -17,-178 6,-34 12,-70 35,-98 25,-30 63,-44 100,-50z"/>
    <path id="1" class="fil4" d="M4085 4612c108,-15 275,-3 388,-2l0 138 -225 -6c-32,2 -64,-3 -95,4 -18,4 -29,23 -30,41 -2,23 -4,50 9,71 11,18 34,21 53,22 67,1 134,0 201,2 38,1 77,13 105,40 27,25 39,62 43,98 6,56 7,112 -6,167 -11,42 -43,79 -85,94 -27,11 -56,8 -84,7 -41,-1 -356,-6 -405,-9l4 -132c21,1 295,12 325,14 22,0 46,1 65,-12 15,-12 17,-33 17,-51 0,-20 1,-41 -1,-62 -1,-13 -17,-15 -27,-15 -68,0 -137,0 -205,1 -37,1 -74,-9 -108,-25 -25,-12 -47,-32 -57,-59 -20,-57 -25,-119 -17,-178 6,-34 12,-70 35,-98 25,-30 63,-44 100,-50z"/>
   </g>
   <g>
    <polygon class="fil3 str1" points="2067,4873 2465,4873 2465,5013 2067,5013 "/>
    <polygon id="1" class="fil4" points="2067,4873 2465,4873 2465,5013 2067,5013 "/>
   </g>
   <g>
    <polygon class="fil3 str1" points="939,4609 1284,4609 1284,4741 1198,4741 1198,5152 1284,5152 1284,5284 939,5284 939,5152 1026,5152 1026,4741 939,4741 "/>
    <polygon id="1" class="fil4" points="939,4609 1284,4609 1284,4741 1198,4741 1198,5152 1284,5152 1284,5284 939,5284 939,5152 1026,5152 1026,4741 939,4741 "/>
   </g>
   <g>
    <polygon class="fil3 str1" points="3327,4609 3907,4609 3907,4741 3703,4741 3703,5284 3531,5284 3531,4741 3327,4741 "/>
    <polygon id="1" class="fil4" points="3327,4609 3907,4609 3907,4741 3703,4741 3703,5284 3531,5284 3531,4741 3327,4741 "/>
   </g>
   <g>
    <path class="fil3 str1" d="M1805 4609l172 0 0 527c0,94 -78,159 -172,159l-265 0c-94,0 -172,-65 -172,-159l0 -527 172 0 0 421 0 0 0 68c0,34 28,62 62,62l142 0c34,0 62,-28 62,-62l0 -151 -1 0 0 -338z"/>
    <path id="1" class="fil4" d="M1805 4609l172 0 0 527c0,94 -78,159 -172,159l-265 0c-94,0 -172,-65 -172,-159l0 -527 172 0 0 421 0 0 0 68c0,34 28,62 62,62l142 0c34,0 62,-28 62,-62l0 -151 -1 0 0 -338z"/>
   </g>
   <g>
    <path class="fil3 str1" d="M5066 4609l171 0 0 527c0,94 -77,159 -171,159l-265 0c-95,0 -172,-65 -172,-159l0 -527 172 0 0 421 0 0 0 68c0,34 28,62 62,62l142 0c34,0 62,-28 62,-62l0 -151 -1 0 0 -338z"/>
    <path id="1" class="fil4" d="M5066 4609l171 0 0 527c0,94 -77,159 -171,159l-265 0c-95,0 -172,-65 -172,-159l0 -527 172 0 0 421 0 0 0 68c0,34 28,62 62,62l142 0c34,0 62,-28 62,-62l0 -151 -1 0 0 -338z"/>
   </g>
   <g>
    <path class="fil3 str1" d="M843 5094l0 -485 -293 0 0 132 126 0 0 353c-1,17 1,38 -12,51 -15,15 -37,16 -57,15l-136 -9 -2 138c76,10 143,6 219,4 40,-1 83,-13 111,-44 33,-38 44,-92 44,-155z"/>
    <path id="1" class="fil4" d="M843 5094l0 -485 -293 0 0 132 126 0 0 353c-1,17 1,38 -12,51 -15,15 -37,16 -57,15l-136 -9 -2 138c76,10 143,6 219,4 40,-1 83,-13 111,-44 33,-38 44,-92 44,-155z"/>
   </g>
   <g>
    <path class="fil3 str1" d="M2847 5095l0 -485 -293 0 0 132 127 0 0 353c-1,18 0,38 -13,52 -14,14 -37,15 -56,14l-136 -9 -2 138c75,10 142,6 219,5 40,-2 83,-13 110,-45 34,-38 44,-91 44,-155z"/>
    <path id="1" class="fil4" d="M2847 5095l0 -485 -293 0 0 132 127 0 0 353c-1,18 0,38 -13,52 -14,14 -37,15 -56,14l-136 -9 -2 138c75,10 142,6 219,5 40,-2 83,-13 110,-45 34,-38 44,-91 44,-155z"/>
   </g>
  </g>
  <g>
   <g>
    <path class="fil3 str1" d="M978 2482c64,-110 127,-219 190,-329 58,-100 187,-134 288,-77l219 127c101,58 135,188 78,288 -64,109 -127,219 -190,328l-585 -337zm200 -82l356 205 85 -146c21,-38 8,-86 -29,-108l-220 -126c-37,-22 -86,-9 -107,28l-85 147z"/>
    <path id="1" class="fil4" d="M978 2482c64,-110 127,-219 190,-329 58,-100 187,-134 288,-77l219 127c101,58 135,188 78,288 -64,109 -127,219 -190,328l-585 -337zm200 -82l356 205 85 -146c21,-38 8,-86 -29,-108l-220 -126c-37,-22 -86,-9 -107,28l-85 147z"/>
   </g>
   <g>
    <polygon class="fil3 str1" points="1321,1888 1586,1430 1700,1496 1521,1806 1642,1875 1782,1632 1897,1698 1756,1941 1877,2011 2056,1702 2170,1768 1906,2225 "/>
    <polygon id="1" class="fil4" points="1321,1888 1586,1430 1700,1496 1521,1806 1642,1875 1782,1632 1897,1698 1756,1941 1877,2011 2056,1702 2170,1768 1906,2225 "/>
   </g>
   <g>
    <polygon class="fil3 str1" points="2648,554 2815,651 2729,799 2562,702 2562,702 2022,674 2108,526 2477,554 2268,249 2354,100 "/>
    <polygon id="1" class="fil4" points="2648,554 2815,651 2729,799 2562,702 2562,702 2022,674 2108,526 2477,554 2268,249 2354,100 "/>
   </g>
   <g>
    <path class="fil3 str1" d="M1068 3414l114 65 -181 313c-47,82 -152,110 -234,63l-287 -166c-82,-47 -110,-153 -63,-234l180 -313 115 66 -156 270c-14,24 -6,55 18,69l267 154c24,14 55,5 69,-19 52,-90 105,-177 158,-268z"/>
    <path id="1" class="fil4" d="M1068 3414l114 65 -181 313c-47,82 -152,110 -234,63l-287 -166c-82,-47 -110,-153 -63,-234l180 -313 115 66 -156 270c-14,24 -6,55 18,69l267 154c24,14 55,5 69,-19 52,-90 105,-177 158,-268z"/>
   </g>
   <g>
    <path class="fil3 str1" d="M1098 3102l77 -133 -217 -36 140 169zm216 -109l-126 218 87 106 -85 149 -459 -556 94 -162 710 119 -85 149 -136 -23z"/>
    <path id="1" class="fil4" d="M1098 3102l77 -133 -217 -36 140 169zm216 -109l-126 218 87 106 -85 149 -459 -556 94 -162 710 119 -85 149 -136 -23z"/>
   </g>
   <g>
    <polygon class="fil3 str1" points="1913,864 2110,1209 1712,1211 1626,1360 2211,1697 2296,1549 1966,1358 2242,1357 2303,1250 2167,1011 2497,1201 2583,1053 1998,716 "/>
    <polygon id="1" class="fil4" points="1913,864 2110,1209 1712,1211 1626,1360 2211,1697 2296,1549 1966,1358 2242,1357 2303,1250 2167,1011 2497,1201 2583,1053 1998,716 "/>
   </g>
   <g>
    <path class="fil3 str1" d="M473 4185l77 -133 -217 -36 140 169zm216 -109l-127 218 88 106 -85 148 -459 -555 94 -162 710 119 -86 148 -135 -22z"/>
    <path id="1" class="fil4" d="M473 4185l77 -133 -217 -36 140 169zm216 -109l-127 218 88 106 -85 148 -459 -555 94 -162 710 119 -86 148 -135 -22z"/>
   </g>
  </g>
  <g>
   <path class="fil5" d="M3979 4244l72 0 -36 -97 -36 97zm95 62l-118 0 -23 60 -80 0 118 -317 88 0 118 317 -80 0 -23 -60zm-489 -257l250 0 0 63 -169 0 0 66 132 0 0 62 -132 0 0 66 169 0 0 62 -250 0 0 -319zm-307 0l273 0 0 62 -96 0 0 255 -81 0 0 -255 -96 0 0 -62z"/>
   <path class="fil1" d="M1371 4049l-144 0c-39,0 -71,32 -71,71l0 176c0,39 32,70 71,70l144 0c39,0 70,-31 70,-70l0 -176c0,-39 -31,-71 -70,-71zm-20 62l-104 0c-11,0 -19,9 -19,19l0 155c0,11 8,19 19,19l104 0c10,0 19,-8 19,-19l0 -155c0,-10 -9,-19 -19,-19zm366 157l67 98 -80 0 -66 -96 -57 0 0 96 -80 0c0,-105 0,-211 0,-317 65,0 131,0 197,0 44,0 80,37 80,81l0 59c0,38 -26,70 -61,79zm-136 -60l94 0c13,0 23,-11 23,-24l0 -48c0,-13 -10,-24 -23,-24 -32,0 -63,0 -94,0l0 96zm1137 -159l-144 0c-39,0 -70,32 -70,71l0 176c0,39 31,70 70,70l144 0c39,0 70,-31 70,-70l0 -176c0,-39 -31,-71 -70,-71zm-20 62l-104 0c-10,0 -19,9 -19,19l0 155c0,11 9,19 19,19l104 0c10,0 19,-8 19,-19l0 -155c0,-10 -9,-19 -19,-19zm-663 -62l79 0 0 244c0,43 -35,73 -79,73l-122 0c-44,0 -79,-30 -79,-73l0 -244 79 0 0 195 0 0 0 31c0,16 13,29 29,29l65 0c16,0 29,-13 29,-29l0 -69 -1 0 0 -157zm935 219l-82 -219 -80 0 118 317 88 0 118 -317 -80 0 -82 219zm-604 -219l80 0c0,106 0,212 0,317l-2 0 -78 0c-38,-62 -77,-124 -116,-186l0 186 -80 0c0,-105 0,-211 0,-317l80 0 116 190 0 -190zm2104 0l-94 162 -95 -162 -80 0 0 317 80 0 0 -179 66 112 57 0 66 -112 0 179 80 0 0 -317 -80 0z"/>
  </g>
 </g>
</svg>
